<svg width="90" height="90" viewBox="0 0 90 90" fill="none" xmlns="http://www.w3.org/2000/svg">
<rect width="90" height="90" rx="10" fill="#4927E0"/>
<path d="M55.2263 63.8281C59.1058 62.3437 62.6293 60.4132 65.7967 58.0365L59.8407 50.1499C57.3307 52.1691 54.6209 53.7354 51.7113 54.8486C49.4944 55.6968 47.6368 56.1693 46.1384 56.2661C44.5762 56.3344 43.3216 56.0996 42.3746 55.5619C41.4276 55.0241 40.7598 54.2472 40.371 53.2312C39.8762 51.938 39.9955 50.7276 40.7288 49.5999C41.4445 48.426 42.5453 47.29 44.0312 46.1921C45.4995 45.0479 47.1702 43.8792 49.0432 42.6861C50.8525 41.4644 52.6494 40.1415 54.4342 38.7174C56.1727 37.311 57.6789 35.7817 58.9528 34.1295C60.2267 32.4773 61.0767 30.6167 61.5028 28.5476C61.8827 26.4962 61.5779 24.1774 60.5883 21.5911C59.5281 18.82 57.8261 16.5857 55.4824 14.8881C53.0747 13.162 50.1137 12.2036 46.5993 12.0128C43.021 11.7935 38.9457 12.5586 34.3735 14.308C31.3253 15.4742 28.4647 16.9923 25.7916 18.8622C23.1009 20.6858 20.8979 22.7465 19.1826 25.044L25.9067 32.2398C27.6749 30.0807 29.5757 28.2681 31.609 26.8019C33.6247 25.2894 35.7178 24.1179 37.8885 23.2874C40.0592 22.4569 41.9345 22.0306 43.5144 22.0085C45.0943 21.9864 46.3435 22.2762 47.2619 22.8778C48.1627 23.4332 48.8163 24.242 49.2228 25.3043C49.6999 26.5513 49.5806 27.7617 48.8649 28.9356C48.1316 30.0633 47.022 31.1761 45.536 32.2741C44.0501 33.3721 42.4025 34.5319 40.5933 35.7536C38.7379 36.9929 36.9321 38.2927 35.1759 39.653C33.3735 41.0309 31.8353 42.5459 30.5615 44.1981C29.2876 45.8503 28.4607 47.7021 28.0807 49.7535C27.6546 51.8225 27.9275 54.1271 28.8994 56.6673C29.942 59.3922 31.6582 61.5946 34.0482 63.2745C36.4381 64.9544 39.4222 65.9039 43.0005 66.1232C46.5326 66.3602 50.6079 65.5951 55.2263 63.8281Z" fill="#D1A8DC"/>
<circle cx="40.6908" cy="76.5897" r="6.67567" fill="#D1A8DC"/>
</svg>
