<svg width="88" height="88" viewBox="0 0 88 88" fill="none" xmlns="http://www.w3.org/2000/svg">
<rect width="88" height="88" rx="10" fill="#EF8354"/>
<path d="M54.944 62.9679C57.92 61.833 60.6338 60.4573 63.0853 58.8406C65.5368 57.224 66.3505 56.2603 67.943 53.8715C68.3841 53.2098 69.5356 51.1187 69.1736 46.705L59.184 46.705C59.184 46.705 59.184 48.5006 57.2537 50.9231C56.0715 52.4068 53.9201 53.1318 51.6881 53.983C50.2496 54.5315 48.9564 54.9395 47.8085 55.2068C46.592 55.4434 45.5054 55.5737 44.5487 55.5977C43.5234 55.591 42.6529 55.4684 41.937 55.2301C41.1716 55.0106 40.5514 54.6506 40.0764 54.15C39.5518 53.6683 39.1476 53.0554 38.8639 52.3114C38.3532 50.9721 38.3835 49.7107 38.9547 48.527C39.4764 47.3622 40.3926 46.189 41.7032 45.0074C42.9643 43.8448 44.4426 42.6561 46.1383 41.4413C47.834 40.2265 49.5793 38.9928 51.3742 37.7402C53.1502 36.4379 54.8387 35.0554 56.4398 33.5926C58.022 32.0802 59.3491 30.4947 60.421 28.836C61.4929 27.1774 62.1537 25.3346 62.4034 23.3076C62.6531 21.2807 62.324 19.0769 61.416 16.696C60.4514 14.1663 59.0983 12.1825 57.3568 10.7445C55.5657 9.32538 53.476 8.38946 51.0876 7.93672C48.6992 7.48399 46.1361 7.46715 43.3984 7.88621C40.6417 8.25568 37.7754 9.00786 34.7993 10.1428C32.0217 11.202 29.5063 12.5021 27.2532 14.0431C24.9812 15.5345 23.1393 17.2596 21.7273 19.2184C20.3153 21.1772 19.4479 23.2976 19.1251 25.5797C18.7526 27.8806 19.0582 30.3208 20.0418 32.9L20.3823 33.7928L31.1705 29.6788L30.9435 29.0836C30.4328 27.7443 30.3946 26.4522 30.8288 25.2071C31.263 23.9621 32.0953 22.7925 33.3257 21.6983C34.5561 20.6042 36.1385 19.6882 38.0729 18.9505C40.1561 18.1561 42.0174 17.6736 43.6568 17.5029C45.2466 17.3512 46.5896 17.5208 47.6858 18.0118C48.7136 18.4721 49.426 19.223 49.8233 20.2646C50.2772 21.4551 50.2339 22.6079 49.6933 23.723C49.0843 24.8075 48.1492 25.9311 46.8881 27.0938C45.5586 28.2258 44.0365 29.3744 42.3219 30.5395C40.6073 31.7047 38.862 32.9384 37.086 34.2406C35.31 35.5429 33.6215 36.9254 32.0204 38.3882C30.4193 39.851 29.0922 41.4365 28.0392 43.1448C26.9673 44.8035 26.2971 46.6214 26.0285 48.5988C25.7598 50.5761 26.0606 52.7055 26.9307 54.9872C28.425 58.9057 30.5685 61.696 33.3613 63.358C36.154 65.0201 39.3953 65.7726 43.0851 65.6154C46.7749 65.4582 50.7279 64.5757 54.944 62.9679Z" fill="white"/>
<circle cx="44.0547" cy="77.7593" r="7.16652" fill="white"/>
</svg>
