<svg width="213" height="61" viewBox="0 0 213 61" fill="none" xmlns="http://www.w3.org/2000/svg">
<path d="M19.4 46.6C14 46.6 9.83333 45.1667 6.9 42.3C4 39.4 2.55 34.9167 2.55 28.85C2.55 24.8167 3.25 21.5 4.65 18.9C6.05 16.2667 8.08333 14.3167 10.75 13.05C13.4167 11.75 16.6167 11.1 20.35 11.1C22.5833 11.1 24.6833 11.35 26.65 11.85C28.6167 12.35 30.35 13.1167 31.85 14.15C33.3833 15.1833 34.5667 16.4833 35.4 18.05C36.2667 19.5833 36.7 21.4167 36.7 23.55H29.15C29.15 22.5167 28.9167 21.6 28.45 20.8C28.0167 20 27.4 19.3333 26.6 18.8C25.8 18.2667 24.8833 17.8667 23.85 17.6C22.8167 17.3333 21.7333 17.2 20.6 17.2C18.8667 17.2 17.35 17.4333 16.05 17.9C14.75 18.3333 13.6667 19.0167 12.8 19.95C11.9667 20.85 11.3333 21.9833 10.9 23.35C10.4667 24.7167 10.25 26.3 10.25 28.1V29.6C10.25 32.1 10.6167 34.15 11.35 35.75C12.0833 37.35 13.1833 38.55 14.65 39.35C16.1167 40.1167 17.9333 40.5 20.1 40.5C21.9 40.5 23.4833 40.2333 24.85 39.7C26.25 39.1333 27.3333 38.3333 28.1 37.3C28.9 36.2667 29.3 35 29.3 33.5V33.15H19.05V27.45H36.7V46H31.8L31.15 42.3C30.15 43.2667 29.0667 44.0667 27.9 44.7C26.7667 45.3333 25.5 45.8 24.1 46.1C22.7 46.4333 21.1333 46.6 19.4 46.6ZM52.2379 46.6C49.3379 46.6 46.9046 46.1167 44.9379 45.15C42.9712 44.15 41.4879 42.6333 40.4879 40.6C39.4879 38.5667 38.9879 35.9833 38.9879 32.85C38.9879 29.6833 39.4879 27.1 40.4879 25.1C41.4879 23.0667 42.9546 21.5667 44.8879 20.6C46.8546 19.6 49.2546 19.1 52.0879 19.1C54.7546 19.1 57.0046 19.5833 58.8379 20.55C60.6712 21.4833 62.0546 22.95 62.9879 24.95C63.9212 26.9167 64.3879 29.4667 64.3879 32.6V34.4H46.0379C46.1046 35.9333 46.3379 37.2333 46.7379 38.3C47.1712 39.3667 47.8212 40.1667 48.6879 40.7C49.5879 41.2 50.7712 41.45 52.2379 41.45C53.0379 41.45 53.7546 41.35 54.3879 41.15C55.0546 40.95 55.6212 40.65 56.0879 40.25C56.5546 39.85 56.9212 39.35 57.1879 38.75C57.4546 38.15 57.5879 37.4667 57.5879 36.7H64.3879C64.3879 38.3667 64.0879 39.8167 63.4879 41.05C62.8879 42.2833 62.0546 43.3167 60.9879 44.15C59.9212 44.95 58.6379 45.5667 57.1379 46C55.6712 46.4 54.0379 46.6 52.2379 46.6ZM46.1379 30H57.2379C57.2379 29 57.1046 28.1333 56.8379 27.4C56.6046 26.6667 56.2712 26.0667 55.8379 25.6C55.4046 25.1333 54.8712 24.8 54.2379 24.6C53.6379 24.3667 52.9546 24.25 52.1879 24.25C50.9212 24.25 49.8546 24.4667 48.9879 24.9C48.1546 25.3 47.5046 25.9333 47.0379 26.8C46.6046 27.6333 46.3046 28.7 46.1379 30ZM66.4871 46V9.85H73.4371V22.6H73.7871C74.3538 21.9 75.0204 21.3 75.7871 20.8C76.5871 20.2667 77.4704 19.85 78.4371 19.55C79.4371 19.25 80.5204 19.1 81.6871 19.1C83.4204 19.1 84.9371 19.4167 86.2371 20.05C87.5371 20.6833 88.5371 21.6833 89.2371 23.05C89.9704 24.4167 90.3371 26.2 90.3371 28.4V46H83.3871V29.5C83.3871 28.6667 83.2871 27.9667 83.0871 27.4C82.8871 26.8 82.5871 26.3167 82.1871 25.95C81.8204 25.55 81.3538 25.2667 80.7871 25.1C80.2204 24.9333 79.5871 24.85 78.8871 24.85C77.8538 24.85 76.9204 25.1 76.0871 25.6C75.2538 26.1 74.6038 26.7833 74.1371 27.65C73.6704 28.5167 73.4371 29.5167 73.4371 30.65V46H66.4871ZM101.415 46.6C99.7486 46.6 98.3986 46.3 97.3652 45.7C96.3319 45.1 95.5819 44.3 95.1152 43.3C94.6486 42.2667 94.4152 41.1333 94.4152 39.9V25.05H91.1652V19.7H94.6652L95.9652 12.2H101.365V19.7H106.165V25.05H101.365V38.75C101.365 39.55 101.549 40.1667 101.915 40.6C102.282 41 102.882 41.2 103.715 41.2H106.165V45.8C105.765 45.9333 105.299 46.05 104.765 46.15C104.232 46.2833 103.665 46.3833 103.065 46.45C102.465 46.55 101.915 46.6 101.415 46.6ZM128.42 46.6C126.42 46.6 124.52 46.4 122.72 46C120.92 45.6 119.32 44.9667 117.92 44.1C116.553 43.2 115.47 42.0833 114.67 40.75C113.903 39.3833 113.52 37.7333 113.52 35.8C113.52 35.6333 113.52 35.4667 113.52 35.3C113.52 35.1 113.536 34.95 113.57 34.85H120.97C120.936 34.95 120.92 35.0833 120.92 35.25C120.92 35.4167 120.92 35.5667 120.92 35.7C120.92 36.7667 121.203 37.6667 121.77 38.4C122.37 39.1333 123.236 39.6833 124.37 40.05C125.503 40.4167 126.82 40.6 128.32 40.6C129.286 40.6 130.136 40.55 130.87 40.45C131.636 40.3167 132.303 40.15 132.87 39.95C133.47 39.7167 133.953 39.45 134.32 39.15C134.72 38.85 135.003 38.5 135.17 38.1C135.37 37.7 135.47 37.25 135.47 36.75C135.47 35.85 135.17 35.1167 134.57 34.55C134.003 33.9833 133.203 33.5 132.17 33.1C131.17 32.7 130.036 32.3333 128.77 32C127.503 31.6667 126.203 31.3333 124.87 31C123.536 30.6333 122.236 30.2 120.97 29.7C119.703 29.1667 118.57 28.5333 117.57 27.8C116.57 27.0667 115.77 26.1333 115.17 25C114.57 23.8667 114.27 22.5 114.27 20.9C114.27 19.2 114.62 17.7333 115.32 16.5C116.053 15.2667 117.07 14.25 118.37 13.45C119.67 12.65 121.17 12.0667 122.87 11.7C124.57 11.3 126.42 11.1 128.42 11.1C130.286 11.1 132.053 11.3 133.72 11.7C135.386 12.0667 136.853 12.6667 138.12 13.5C139.386 14.3333 140.37 15.3833 141.07 16.65C141.803 17.9167 142.17 19.4167 142.17 21.15V21.75H134.92V21.35C134.92 20.45 134.653 19.6833 134.12 19.05C133.586 18.4167 132.836 17.9167 131.87 17.55C130.903 17.1833 129.77 17 128.47 17C127.07 17 125.87 17.1333 124.87 17.4C123.903 17.6667 123.153 18.0667 122.62 18.6C122.12 19.1 121.87 19.7 121.87 20.4C121.87 21.2 122.153 21.8667 122.72 22.4C123.32 22.9 124.12 23.35 125.12 23.75C126.153 24.1167 127.303 24.45 128.57 24.75C129.836 25.05 131.136 25.3833 132.47 25.75C133.803 26.1167 135.103 26.55 136.37 27.05C137.636 27.55 138.77 28.1833 139.77 28.95C140.77 29.6833 141.57 30.6 142.17 31.7C142.77 32.8 143.07 34.1167 143.07 35.65C143.07 38.2833 142.436 40.4 141.17 42C139.903 43.6 138.17 44.7667 135.97 45.5C133.77 46.2333 131.253 46.6 128.42 46.6ZM157.505 46.6C154.638 46.6 152.205 46.1167 150.205 45.15C148.205 44.15 146.688 42.6333 145.655 40.6C144.622 38.5333 144.105 35.95 144.105 32.85C144.105 29.6833 144.622 27.1 145.655 25.1C146.688 23.0667 148.205 21.5667 150.205 20.6C152.205 19.6 154.638 19.1 157.505 19.1C160.438 19.1 162.888 19.6 164.855 20.6C166.855 21.5667 168.372 23.0667 169.405 25.1C170.438 27.1 170.955 29.6833 170.955 32.85C170.955 35.95 170.438 38.5333 169.405 40.6C168.372 42.6333 166.855 44.15 164.855 45.15C162.888 46.1167 160.438 46.6 157.505 46.6ZM157.505 41.2C159.038 41.2 160.255 40.9167 161.155 40.35C162.088 39.7833 162.772 38.9167 163.205 37.75C163.638 36.5833 163.855 35.15 163.855 33.45V32.25C163.855 30.55 163.638 29.1167 163.205 27.95C162.772 26.7833 162.088 25.9167 161.155 25.35C160.255 24.75 159.038 24.45 157.505 24.45C156.005 24.45 154.788 24.75 153.855 25.35C152.955 25.9167 152.288 26.7833 151.855 27.95C151.422 29.1167 151.205 30.55 151.205 32.25V33.45C151.205 35.15 151.422 36.5833 151.855 37.75C152.288 38.9167 152.955 39.7833 153.855 40.35C154.788 40.9167 156.005 41.2 157.505 41.2Z" fill="white"/>
<path d="M199.338 38.2118C201.206 37.4992 202.91 36.6353 204.45 35.6202C205.989 34.6051 206.5 34 207.5 32.5C207.777 32.0846 208.5 30.7715 208.273 28L202 28C202 28 202 29.1275 200.788 30.6487C200.046 31.5803 198.695 32.0355 197.293 32.57C196.39 32.9145 195.578 33.1706 194.857 33.3385C194.093 33.4871 193.411 33.5689 192.81 33.5839C192.166 33.5797 191.62 33.5028 191.17 33.3531C190.69 33.2153 190.3 32.9892 190.002 32.6749C189.673 32.3724 189.419 31.9876 189.241 31.5204C188.92 30.6795 188.939 29.8874 189.298 29.1441C189.625 28.4127 190.201 27.676 191.023 26.9341C191.815 26.204 192.744 25.4576 193.808 24.6948C194.873 23.932 195.969 23.1574 197.096 22.3708C198.211 21.5531 199.272 20.685 200.277 19.7665C201.27 18.8169 202.104 17.8213 202.777 16.7797C203.45 15.7382 203.865 14.5811 204.022 13.3084C204.178 12.0356 203.972 10.6518 203.402 9.15678C202.796 7.56836 201.946 6.32267 200.853 5.4197C199.728 4.52862 198.416 3.94094 196.916 3.65666C195.416 3.37238 193.807 3.3618 192.088 3.62494C190.357 3.85693 188.557 4.32925 186.688 5.04188C184.944 5.707 183.365 6.52337 181.95 7.49097C180.523 8.42744 179.367 9.51065 178.48 10.7406C177.594 11.9706 177.049 13.3021 176.846 14.735C176.612 16.1798 176.804 17.712 177.422 19.3316L177.636 19.8922L184.41 17.3089L184.267 16.9352C183.947 16.0943 183.923 15.2829 184.195 14.5011C184.468 13.7193 184.991 12.9849 185.763 12.2978C186.536 11.6108 187.529 11.0357 188.744 10.5724C190.052 10.0736 191.221 9.77061 192.25 9.66346C193.248 9.56818 194.092 9.67469 194.78 9.98298C195.425 10.272 195.873 10.7435 196.122 11.3976C196.407 12.1451 196.38 12.869 196.041 13.5692C195.658 14.2502 195.071 14.9557 194.279 15.6858C193.444 16.3965 192.489 17.1178 191.412 17.8494C190.335 18.5811 189.239 19.3557 188.124 20.1734C187.009 20.9911 185.949 21.8592 184.943 22.7777C183.938 23.6962 183.105 24.6918 182.444 25.7645C181.771 26.806 181.35 27.9476 181.181 29.1892C181.012 30.4307 181.201 31.7679 181.748 33.2006C182.686 35.6611 184.032 37.4132 185.785 38.4568C187.539 39.5005 189.574 39.9729 191.891 39.8742C194.208 39.7755 196.69 39.2214 199.338 38.2118Z" fill="white"/>
<circle cx="192.5" cy="47.5" r="4.5" fill="white"/>
</svg>
