<svg width="251" height="61" viewBox="0 0 251 61" fill="none" xmlns="http://www.w3.org/2000/svg">
<path d="M21.05 48.6C18.2833 48.6 15.7333 48.1667 13.4 47.3C11.1 46.4 9.08333 45.1333 7.35 43.5C5.65 41.8667 4.31667 39.95 3.35 37.75C2.41667 35.55 1.95 33.1333 1.95 30.5C1.95 27.8667 2.41667 25.45 3.35 23.25C4.31667 21.05 5.66667 19.1333 7.4 17.5C9.13333 15.8667 11.1667 14.6167 13.5 13.75C15.8333 12.85 18.4 12.4 21.2 12.4C24.3 12.4 27.0833 12.9167 29.55 13.95C32.05 14.9833 34.15 16.4833 35.85 18.45L30.65 23.25C29.3833 21.9167 28 20.9333 26.5 20.3C25 19.6333 23.3667 19.3 21.6 19.3C19.9 19.3 18.35 19.5667 16.95 20.1C15.55 20.6333 14.3333 21.4 13.3 22.4C12.3 23.4 11.5167 24.5833 10.95 25.95C10.4167 27.3167 10.15 28.8333 10.15 30.5C10.15 32.1333 10.4167 33.6333 10.95 35C11.5167 36.3667 12.3 37.5667 13.3 38.6C14.3333 39.6 15.5333 40.3667 16.9 40.9C18.3 41.4333 19.8333 41.7 21.5 41.7C23.1 41.7 24.65 41.45 26.15 40.95C27.6833 40.4167 29.1667 39.5333 30.6 38.3L35.2 44.15C33.3 45.5833 31.0833 46.6833 28.55 47.45C26.05 48.2167 23.55 48.6 21.05 48.6ZM27.8 43.1V29.95H35.2V44.15L27.8 43.1ZM55.5242 48.4C52.4576 48.4 49.7576 47.8 47.4242 46.6C45.1242 45.4 43.3409 43.7667 42.0742 41.7C40.8076 39.6 40.1742 37.2167 40.1742 34.55C40.1742 31.85 40.7909 29.4667 42.0242 27.4C43.2909 25.3 45.0076 23.6667 47.1742 22.5C49.3409 21.3 51.7909 20.7 54.5242 20.7C57.1576 20.7 59.5242 21.2667 61.6242 22.4C63.7576 23.5 65.4409 25.1 66.6742 27.2C67.9076 29.2667 68.5242 31.75 68.5242 34.65C68.5242 34.95 68.5076 35.3 68.4742 35.7C68.4409 36.0667 68.4076 36.4167 68.3742 36.75H46.5242V32.2H64.2742L61.2742 33.55C61.2742 32.15 60.9909 30.9333 60.4242 29.9C59.8576 28.8667 59.0742 28.0667 58.0742 27.5C57.0742 26.9 55.9076 26.6 54.5742 26.6C53.2409 26.6 52.0576 26.9 51.0242 27.5C50.0242 28.0667 49.2409 28.8833 48.6742 29.95C48.1076 30.9833 47.8242 32.2167 47.8242 33.65V34.85C47.8242 36.3167 48.1409 37.6167 48.7742 38.75C49.4409 39.85 50.3576 40.7 51.5242 41.3C52.7242 41.8667 54.1242 42.15 55.7242 42.15C57.1576 42.15 58.4076 41.9333 59.4742 41.5C60.5742 41.0667 61.5742 40.4167 62.4742 39.55L66.6242 44.05C65.3909 45.45 63.8409 46.5333 61.9742 47.3C60.1076 48.0333 57.9576 48.4 55.5242 48.4ZM90.0672 20.7C92.2005 20.7 94.1005 21.1333 95.7672 22C97.4672 22.8333 98.8005 24.1333 99.7672 25.9C100.734 27.6333 101.217 29.8667 101.217 32.6V48H93.4172V33.8C93.4172 31.6333 92.9339 30.0333 91.9672 29C91.0339 27.9667 89.7005 27.45 87.9672 27.45C86.7339 27.45 85.6172 27.7167 84.6172 28.25C83.6505 28.75 82.8839 29.5333 82.3172 30.6C81.7839 31.6667 81.5172 33.0333 81.5172 34.7V48H73.7172V10.9H81.5172V28.55L79.7672 26.3C80.7339 24.5 82.1172 23.1167 83.9172 22.15C85.7172 21.1833 87.7672 20.7 90.0672 20.7ZM119.288 48.4C116.121 48.4 113.654 47.6 111.888 46C110.121 44.3667 109.238 41.95 109.238 38.75V15.15H117.038V38.65C117.038 39.7833 117.338 40.6667 117.938 41.3C118.538 41.9 119.354 42.2 120.388 42.2C121.621 42.2 122.671 41.8667 123.538 41.2L125.638 46.7C124.838 47.2667 123.871 47.7 122.738 48C121.638 48.2667 120.488 48.4 119.288 48.4ZM105.088 27.7V21.7H123.738V27.7H105.088ZM156.226 48.6C153.426 48.6 150.743 48.2333 148.176 47.5C145.61 46.7333 143.543 45.75 141.976 44.55L144.726 38.45C146.226 39.5167 147.993 40.4 150.026 41.1C152.093 41.7667 154.176 42.1 156.276 42.1C157.876 42.1 159.16 41.95 160.126 41.65C161.126 41.3167 161.86 40.8667 162.326 40.3C162.793 39.7333 163.026 39.0833 163.026 38.35C163.026 37.4167 162.66 36.6833 161.926 36.15C161.193 35.5833 160.226 35.1333 159.026 34.8C157.826 34.4333 156.493 34.1 155.026 33.8C153.593 33.4667 152.143 33.0667 150.676 32.6C149.243 32.1333 147.926 31.5333 146.726 30.8C145.526 30.0667 144.543 29.1 143.776 27.9C143.043 26.7 142.676 25.1667 142.676 23.3C142.676 21.3 143.21 19.4833 144.276 17.85C145.376 16.1833 147.01 14.8667 149.176 13.9C151.376 12.9 154.126 12.4 157.426 12.4C159.626 12.4 161.793 12.6667 163.926 13.2C166.06 13.7 167.943 14.4667 169.576 15.5L167.076 21.65C165.443 20.7167 163.81 20.0333 162.176 19.6C160.543 19.1333 158.943 18.9 157.376 18.9C155.81 18.9 154.526 19.0833 153.526 19.45C152.526 19.8167 151.81 20.3 151.376 20.9C150.943 21.4667 150.726 22.1333 150.726 22.9C150.726 23.8 151.093 24.5333 151.826 25.1C152.56 25.6333 153.526 26.0667 154.726 26.4C155.926 26.7333 157.243 27.0667 158.676 27.4C160.143 27.7333 161.593 28.1167 163.026 28.55C164.493 28.9833 165.826 29.5667 167.026 30.3C168.226 31.0333 169.193 32 169.926 33.2C170.693 34.4 171.076 35.9167 171.076 37.75C171.076 39.7167 170.526 41.5167 169.426 43.15C168.326 44.7833 166.676 46.1 164.476 47.1C162.31 48.1 159.56 48.6 156.226 48.6ZM188.861 48.4C185.994 48.4 183.444 47.8 181.211 46.6C179.011 45.4 177.261 43.7667 175.961 41.7C174.694 39.6 174.061 37.2167 174.061 34.55C174.061 31.85 174.694 29.4667 175.961 27.4C177.261 25.3 179.011 23.6667 181.211 22.5C183.444 21.3 185.994 20.7 188.861 20.7C191.694 20.7 194.228 21.3 196.461 22.5C198.694 23.6667 200.444 25.2833 201.711 27.35C202.978 29.4167 203.611 31.8167 203.611 34.55C203.611 37.2167 202.978 39.6 201.711 41.7C200.444 43.7667 198.694 45.4 196.461 46.6C194.228 47.8 191.694 48.4 188.861 48.4ZM188.861 42C190.161 42 191.328 41.7 192.361 41.1C193.394 40.5 194.211 39.65 194.811 38.55C195.411 37.4167 195.711 36.0833 195.711 34.55C195.711 32.9833 195.411 31.65 194.811 30.55C194.211 29.45 193.394 28.6 192.361 28C191.328 27.4 190.161 27.1 188.861 27.1C187.561 27.1 186.394 27.4 185.361 28C184.328 28.6 183.494 29.45 182.861 30.55C182.261 31.65 181.961 32.9833 181.961 34.55C181.961 36.0833 182.261 37.4167 182.861 38.55C183.494 39.65 184.328 40.5 185.361 41.1C186.394 41.7 187.561 42 188.861 42Z" fill="#4927E0"/>
<path d="M238.298 46.8974C240.913 45.8969 243.288 44.5955 245.424 42.9934L241.409 37.6771C239.717 39.0383 237.89 40.0941 235.929 40.8445C234.434 41.4162 233.182 41.7347 232.172 41.8C231.119 41.846 230.273 41.6878 229.635 41.3253C228.997 40.9628 228.546 40.4391 228.284 39.7542C227.951 38.8825 228.031 38.0665 228.526 37.3063C229.008 36.515 229.75 35.7493 230.752 35.0092C231.741 34.2379 232.868 33.4501 234.13 32.6458C235.35 31.8223 236.561 30.9306 237.764 29.9706C238.936 29.0226 239.951 27.9917 240.81 26.8779C241.669 25.7642 242.242 24.51 242.529 23.1153C242.785 21.7324 242.58 20.1693 241.913 18.4259C241.198 16.558 240.051 15.0518 238.471 13.9075C236.848 12.744 234.852 12.0979 232.483 11.9693C230.071 11.8215 227.324 12.3372 224.241 13.5165C222.187 14.3026 220.258 15.3259 218.457 16.5864C216.643 17.8157 215.158 19.2047 214.002 20.7535L218.534 25.6041C219.726 24.1487 221.007 22.9268 222.378 21.9384C223.737 20.9189 225.148 20.1292 226.611 19.5694C228.074 19.0096 229.338 18.7222 230.403 18.7073C231.468 18.6924 232.31 18.8877 232.929 19.2933C233.537 19.6677 233.977 20.2129 234.251 20.9289C234.573 21.7695 234.492 22.5855 234.01 23.3768C233.516 24.1369 232.768 24.8871 231.766 25.6272C230.764 26.3674 229.654 27.1492 228.434 27.9727C227.183 28.8081 225.966 29.6843 224.782 30.6012C223.567 31.5301 222.531 32.5513 221.672 33.6651C220.813 34.7788 220.256 36.0271 220 37.4099C219.712 38.8046 219.896 40.3581 220.551 42.0704C221.254 43.9072 222.411 45.3918 224.022 46.5243C225.633 47.6567 227.645 48.2968 230.057 48.4446C232.438 48.6043 235.185 48.0886 238.298 46.8974Z" fill="#4927E0"/>
<circle cx="228.5" cy="55.5" r="4.5" fill="#4927E0"/>
</svg>
