<svg width="310" height="90" viewBox="0 0 310 90" fill="none" xmlns="http://www.w3.org/2000/svg">
<rect width="310" height="90" rx="10" fill="#4927E0"/>
<path d="M51.05 62.6C48.2833 62.6 45.7333 62.1667 43.4 61.3C41.1 60.4 39.0833 59.1333 37.35 57.5C35.65 55.8667 34.3167 53.95 33.35 51.75C32.4167 49.55 31.95 47.1333 31.95 44.5C31.95 41.8667 32.4167 39.45 33.35 37.25C34.3167 35.05 35.6667 33.1333 37.4 31.5C39.1333 29.8667 41.1667 28.6167 43.5 27.75C45.8333 26.85 48.4 26.4 51.2 26.4C54.3 26.4 57.0833 26.9167 59.55 27.95C62.05 28.9833 64.15 30.4833 65.85 32.45L60.65 37.25C59.3833 35.9167 58 34.9333 56.5 34.3C55 33.6333 53.3667 33.3 51.6 33.3C49.9 33.3 48.35 33.5667 46.95 34.1C45.55 34.6333 44.3333 35.4 43.3 36.4C42.3 37.4 41.5167 38.5833 40.95 39.95C40.4167 41.3167 40.15 42.8333 40.15 44.5C40.15 46.1333 40.4167 47.6333 40.95 49C41.5167 50.3667 42.3 51.5667 43.3 52.6C44.3333 53.6 45.5333 54.3667 46.9 54.9C48.3 55.4333 49.8333 55.7 51.5 55.7C53.1 55.7 54.65 55.45 56.15 54.95C57.6833 54.4167 59.1667 53.5333 60.6 52.3L65.2 58.15C63.3 59.5833 61.0833 60.6833 58.55 61.45C56.05 62.2167 53.55 62.6 51.05 62.6ZM57.8 57.1V43.95H65.2V58.15L57.8 57.1ZM85.5242 62.4C82.4576 62.4 79.7576 61.8 77.4242 60.6C75.1242 59.4 73.3409 57.7667 72.0742 55.7C70.8076 53.6 70.1742 51.2167 70.1742 48.55C70.1742 45.85 70.7909 43.4667 72.0242 41.4C73.2909 39.3 75.0076 37.6667 77.1742 36.5C79.3409 35.3 81.7909 34.7 84.5242 34.7C87.1576 34.7 89.5242 35.2667 91.6242 36.4C93.7576 37.5 95.4409 39.1 96.6742 41.2C97.9076 43.2667 98.5242 45.75 98.5242 48.65C98.5242 48.95 98.5076 49.3 98.4742 49.7C98.4409 50.0667 98.4076 50.4167 98.3742 50.75H76.5242V46.2H94.2742L91.2742 47.55C91.2742 46.15 90.9909 44.9333 90.4242 43.9C89.8576 42.8667 89.0742 42.0667 88.0742 41.5C87.0742 40.9 85.9076 40.6 84.5742 40.6C83.2409 40.6 82.0576 40.9 81.0242 41.5C80.0242 42.0667 79.2409 42.8833 78.6742 43.95C78.1076 44.9833 77.8242 46.2167 77.8242 47.65V48.85C77.8242 50.3167 78.1409 51.6167 78.7742 52.75C79.4409 53.85 80.3576 54.7 81.5242 55.3C82.7242 55.8667 84.1242 56.15 85.7242 56.15C87.1576 56.15 88.4076 55.9333 89.4742 55.5C90.5742 55.0667 91.5742 54.4167 92.4742 53.55L96.6242 58.05C95.3909 59.45 93.8409 60.5333 91.9742 61.3C90.1076 62.0333 87.9576 62.4 85.5242 62.4ZM120.067 34.7C122.201 34.7 124.101 35.1333 125.767 36C127.467 36.8333 128.801 38.1333 129.767 39.9C130.734 41.6333 131.217 43.8667 131.217 46.6V62H123.417V47.8C123.417 45.6333 122.934 44.0333 121.967 43C121.034 41.9667 119.701 41.45 117.967 41.45C116.734 41.45 115.617 41.7167 114.617 42.25C113.651 42.75 112.884 43.5333 112.317 44.6C111.784 45.6667 111.517 47.0333 111.517 48.7V62H103.717V24.9H111.517V42.55L109.767 40.3C110.734 38.5 112.117 37.1167 113.917 36.15C115.717 35.1833 117.767 34.7 120.067 34.7ZM149.288 62.4C146.121 62.4 143.654 61.6 141.888 60C140.121 58.3667 139.238 55.95 139.238 52.75V29.15H147.038V52.65C147.038 53.7833 147.338 54.6667 147.938 55.3C148.538 55.9 149.354 56.2 150.388 56.2C151.621 56.2 152.671 55.8667 153.538 55.2L155.638 60.7C154.838 61.2667 153.871 61.7 152.738 62C151.638 62.2667 150.488 62.4 149.288 62.4ZM135.088 41.7V35.7H153.738V41.7H135.088ZM186.226 62.6C183.426 62.6 180.743 62.2333 178.176 61.5C175.61 60.7333 173.543 59.75 171.976 58.55L174.726 52.45C176.226 53.5167 177.993 54.4 180.026 55.1C182.093 55.7667 184.176 56.1 186.276 56.1C187.876 56.1 189.16 55.95 190.126 55.65C191.126 55.3167 191.86 54.8667 192.326 54.3C192.793 53.7333 193.026 53.0833 193.026 52.35C193.026 51.4167 192.66 50.6833 191.926 50.15C191.193 49.5833 190.226 49.1333 189.026 48.8C187.826 48.4333 186.493 48.1 185.026 47.8C183.593 47.4667 182.143 47.0667 180.676 46.6C179.243 46.1333 177.926 45.5333 176.726 44.8C175.526 44.0667 174.543 43.1 173.776 41.9C173.043 40.7 172.676 39.1667 172.676 37.3C172.676 35.3 173.21 33.4833 174.276 31.85C175.376 30.1833 177.01 28.8667 179.176 27.9C181.376 26.9 184.126 26.4 187.426 26.4C189.626 26.4 191.793 26.6667 193.926 27.2C196.06 27.7 197.943 28.4667 199.576 29.5L197.076 35.65C195.443 34.7167 193.81 34.0333 192.176 33.6C190.543 33.1333 188.943 32.9 187.376 32.9C185.81 32.9 184.526 33.0833 183.526 33.45C182.526 33.8167 181.81 34.3 181.376 34.9C180.943 35.4667 180.726 36.1333 180.726 36.9C180.726 37.8 181.093 38.5333 181.826 39.1C182.56 39.6333 183.526 40.0667 184.726 40.4C185.926 40.7333 187.243 41.0667 188.676 41.4C190.143 41.7333 191.593 42.1167 193.026 42.55C194.493 42.9833 195.826 43.5667 197.026 44.3C198.226 45.0333 199.193 46 199.926 47.2C200.693 48.4 201.076 49.9167 201.076 51.75C201.076 53.7167 200.526 55.5167 199.426 57.15C198.326 58.7833 196.676 60.1 194.476 61.1C192.31 62.1 189.56 62.6 186.226 62.6ZM218.861 62.4C215.994 62.4 213.444 61.8 211.211 60.6C209.011 59.4 207.261 57.7667 205.961 55.7C204.694 53.6 204.061 51.2167 204.061 48.55C204.061 45.85 204.694 43.4667 205.961 41.4C207.261 39.3 209.011 37.6667 211.211 36.5C213.444 35.3 215.994 34.7 218.861 34.7C221.694 34.7 224.228 35.3 226.461 36.5C228.694 37.6667 230.444 39.2833 231.711 41.35C232.978 43.4167 233.611 45.8167 233.611 48.55C233.611 51.2167 232.978 53.6 231.711 55.7C230.444 57.7667 228.694 59.4 226.461 60.6C224.228 61.8 221.694 62.4 218.861 62.4ZM218.861 56C220.161 56 221.328 55.7 222.361 55.1C223.394 54.5 224.211 53.65 224.811 52.55C225.411 51.4167 225.711 50.0833 225.711 48.55C225.711 46.9833 225.411 45.65 224.811 44.55C224.211 43.45 223.394 42.6 222.361 42C221.328 41.4 220.161 41.1 218.861 41.1C217.561 41.1 216.394 41.4 215.361 42C214.328 42.6 213.494 43.45 212.861 44.55C212.261 45.65 211.961 46.9833 211.961 48.55C211.961 50.0833 212.261 51.4167 212.861 52.55C213.494 53.65 214.328 54.5 215.361 55.1C216.394 55.7 217.561 56 218.861 56Z" fill="#D1A8DC"/>
<path d="M268.298 60.8974C270.913 59.8969 273.288 58.5955 275.424 56.9934L271.409 51.6771C269.717 53.0383 267.89 54.0941 265.929 54.8445C264.434 55.4162 263.182 55.7347 262.172 55.8C261.119 55.846 260.273 55.6878 259.635 55.3253C258.997 54.9628 258.546 54.4391 258.284 53.7542C257.951 52.8825 258.031 52.0665 258.526 51.3063C259.008 50.515 259.75 49.7493 260.752 49.0092C261.741 48.2379 262.868 47.4501 264.13 46.6458C265.35 45.8223 266.561 44.9306 267.764 43.9706C268.936 43.0226 269.951 41.9917 270.81 40.8779C271.669 39.7642 272.242 38.51 272.529 37.1153C272.785 35.7324 272.58 34.1693 271.913 32.4259C271.198 30.558 270.051 29.0518 268.471 27.9075C266.848 26.744 264.852 26.0979 262.483 25.9693C260.071 25.8215 257.324 26.3372 254.241 27.5165C252.187 28.3026 250.258 29.3259 248.457 30.5864C246.643 31.8157 245.158 33.2047 244.002 34.7535L248.534 39.6041C249.726 38.1487 251.007 36.9268 252.378 35.9384C253.737 34.9189 255.148 34.1292 256.611 33.5694C258.074 33.0096 259.338 32.7222 260.403 32.7073C261.468 32.6924 262.31 32.8877 262.929 33.2933C263.537 33.6677 263.977 34.2129 264.251 34.9289C264.573 35.7695 264.492 36.5855 264.01 37.3768C263.516 38.1369 262.768 38.8871 261.766 39.6272C260.764 40.3674 259.654 41.1492 258.434 41.9727C257.183 42.8081 255.966 43.6843 254.782 44.6012C253.567 45.5301 252.531 46.5513 251.672 47.6651C250.813 48.7788 250.256 50.0271 250 51.4099C249.712 52.8046 249.896 54.3581 250.551 56.0704C251.254 57.9072 252.411 59.3918 254.022 60.5243C255.633 61.6567 257.645 62.2968 260.057 62.4446C262.438 62.6043 265.185 62.0886 268.298 60.8974Z" fill="#D1A8DC"/>
<circle cx="258.5" cy="69.5" r="3.5" fill="#D1A8DC"/>
</svg>
